<mxfile host="65bd71144e">
    <diagram id="lFZ9LjzHTAx1_5N3rNfs" name="Page-1">
        <mxGraphModel dx="857" dy="899" grid="1" gridSize="10" guides="1" tooltips="1" connect="1" arrows="1" fold="1" page="1" pageScale="1" pageWidth="850" pageHeight="1100" math="0" shadow="0">
            <root>
                <mxCell id="0"/>
                <mxCell id="1" parent="0"/>
                <mxCell id="2" value="ISSUE CREATED" style="shape=note;whiteSpace=wrap;html=1;backgroundOutline=1;darkOpacity=0.05;fillColor=#f0a30a;strokeColor=#BD7000;fontColor=#000000;fontSize=16;fontStyle=1;align=left;verticalAlign=top;spacing=10;fontFamily=Comic Sans MS;" vertex="1" parent="1">
                    <mxGeometry x="240" y="80" width="120" height="120" as="geometry"/>
                </mxCell>
                <mxCell id="3" style="edgeStyle=none;html=1;strokeWidth=3;" edge="1" parent="1" source="4" target="2">
                    <mxGeometry relative="1" as="geometry"/>
                </mxCell>
                <mxCell id="4" value="OPEN ISSUE" style="shape=note;whiteSpace=wrap;html=1;backgroundOutline=1;darkOpacity=0.05;fillColor=#65D0FF;strokeColor=#006EAF;fontColor=#000000;fontSize=16;fontStyle=1;align=left;verticalAlign=top;spacing=10;fontFamily=Comic Sans MS;" vertex="1" parent="1">
                    <mxGeometry x="80" y="80" width="120" height="120" as="geometry"/>
                </mxCell>
                <mxCell id="5" value="" style="shape=note;whiteSpace=wrap;html=1;backgroundOutline=1;darkOpacity=0.05;fillColor=#ffff88;strokeColor=#36393d;fontSize=16;fontStyle=1;align=left;verticalAlign=top;spacing=10;fontFamily=Comic Sans MS;" vertex="1" parent="1">
                    <mxGeometry x="20" y="120" width="70" height="100" as="geometry"/>
                </mxCell>
                <mxCell id="6" value="DEV" style="shape=umlActor;verticalLabelPosition=bottom;verticalAlign=top;html=1;outlineConnect=0;fontFamily=Comic Sans MS;fontStyle=1;fontSize=16;strokeWidth=2;" vertex="1" parent="1">
                    <mxGeometry x="40" y="150" width="20" height="40" as="geometry"/>
                </mxCell>
                <mxCell id="7" value="PAYMENT RECEIVED" style="shape=note;whiteSpace=wrap;html=1;backgroundOutline=1;darkOpacity=0.05;fillColor=#f0a30a;strokeColor=#BD7000;fontColor=#000000;fontSize=16;fontStyle=1;align=left;verticalAlign=top;spacing=10;fontFamily=Comic Sans MS;" vertex="1" parent="1">
                    <mxGeometry x="240" y="240" width="120" height="120" as="geometry"/>
                </mxCell>
                <mxCell id="8" style="edgeStyle=none;html=1;strokeWidth=3;" edge="1" parent="1" source="9" target="7">
                    <mxGeometry relative="1" as="geometry"/>
                </mxCell>
                <mxCell id="9" value="PAYPAL" style="shape=note;whiteSpace=wrap;html=1;backgroundOutline=1;darkOpacity=0.05;fillColor=#e1d5e7;strokeColor=#9673a6;fontSize=16;fontStyle=1;align=left;verticalAlign=top;spacing=10;fontFamily=Comic Sans MS;" vertex="1" parent="1">
                    <mxGeometry x="80" y="240" width="120" height="120" as="geometry"/>
                </mxCell>
                <mxCell id="20" style="edgeStyle=none;html=1;strokeWidth=3;" edge="1" parent="1" source="15" target="19">
                    <mxGeometry relative="1" as="geometry"/>
                </mxCell>
                <mxCell id="15" value="PAYMENT CANCELLED" style="shape=note;whiteSpace=wrap;html=1;backgroundOutline=1;darkOpacity=0.05;fillColor=#f0a30a;strokeColor=#BD7000;fontColor=#000000;fontSize=16;fontStyle=1;align=left;verticalAlign=top;spacing=10;fontFamily=Comic Sans MS;" vertex="1" parent="1">
                    <mxGeometry x="240" y="400" width="120" height="120" as="geometry"/>
                </mxCell>
                <mxCell id="16" style="edgeStyle=none;html=1;strokeWidth=3;" edge="1" parent="1" source="17" target="15">
                    <mxGeometry relative="1" as="geometry"/>
                </mxCell>
                <mxCell id="17" value="PAYMENT WINDOW EXPIRED" style="shape=note;whiteSpace=wrap;html=1;backgroundOutline=1;darkOpacity=0.05;fillColor=#f0a30a;strokeColor=#BD7000;fontSize=16;fontStyle=1;align=left;verticalAlign=top;spacing=10;fontFamily=Comic Sans MS;fontColor=#000000;" vertex="1" parent="1">
                    <mxGeometry x="80" y="400" width="120" height="120" as="geometry"/>
                </mxCell>
                <mxCell id="18" value="" style="html=1;verticalLabelPosition=bottom;align=center;labelBackgroundColor=#ffffff;verticalAlign=top;strokeWidth=2;strokeColor=#000000;shadow=0;dashed=0;shape=mxgraph.ios7.icons.clock;fillColor=none;" vertex="1" parent="1">
                    <mxGeometry x="160" y="480" width="30" height="30" as="geometry"/>
                </mxCell>
                <mxCell id="19" value="ORDER CANCELLED" style="shape=note;whiteSpace=wrap;html=1;backgroundOutline=1;darkOpacity=0.05;fillColor=#f0a30a;strokeColor=#BD7000;fontColor=#000000;fontSize=16;fontStyle=1;align=left;verticalAlign=top;spacing=10;fontFamily=Comic Sans MS;" vertex="1" parent="1">
                    <mxGeometry x="400" y="400" width="120" height="120" as="geometry"/>
                </mxCell>
            </root>
        </mxGraphModel>
    </diagram>
</mxfile>